#!OML:ASF C:\ViconDB\ViconDB\414\Spring2016\041811\Spring2016.ASF
:FULLY-SPECIFIED
:DEGREES
469
root 8.78968 17.5788 -36.6048 -173.818 -4.73544 -193.303
lowerback -5.04776 -0.721326 -4.80197
upperback -1.26803 -0.785518 -1.03655
thorax 1.57038 -0.444287 1.57512
lowerneck -13.131 10.8768 1.57368
upperneck 28.9448 14.5456 -2.16312
head 11.9375 5.84737 0.870786
rclavicle -2.03382e-014 -4.13472e-014
rhumerus -85.5376 29.0474 -117.273
rradius 88.0858
rwrist 28.8937
rhand -45.8465 -2.46866
rfingers 7.12502
rthumb -18.598 -31.5996
lclavicle -2.03382e-014 -4.13472e-014
lhumerus -88.1183 -46.9381 120.034
lradius 80.4234
lwrist -25.7351
lhand -37.9946 -4.05348
lfingers 7.12502
lthumb -11.034 25.6365
rfemur 417.278 -590.175 63.436
rtibia 27.237
rfoot -441.893 -47.404
rtoes -1.78906e-014
lfemur 1.75345 1.3785 -41.1553
ltibia 18.0674
lfoot -19.284 -19.2641
ltoes 7.71285e-014
470
root 8.75273 17.5318 -36.8149 -173.623 -5.03966 -193.211
lowerback -5.22009 -0.783696 -4.5569
upperback -1.29822 -0.870127 -0.899803
thorax 1.63988 -0.484853 1.57134
lowerneck -13.3482 10.7479 1.47732
upperneck 29.0516 14.4276 -2.27874
head 12.0239 5.7562 0.842304
rclavicle 1.46604e-015 -2.06736e-014
rhumerus -85.4878 28.9094 -116.917
rradius 88.4281
rwrist 28.8558
rhand -45.6331 -2.29115
rfingers 7.12502
rthumb -18.3928 -31.4416
lclavicle 1.46604e-015 -2.06736e-014
lhumerus -88.2683 -47.0087 120.443
lradius 80.1614
lwrist -25.5862
lhand -38.1707 -3.97688
lfingers 7.12502
lthumb -11.2039 25.704
rfemur 418.305 -590.362 64.836
rtibia 27.1454
rfoot -443.252 -47.978
rtoes -1.78906e-014
lfemur 2.51665 0.765789 -41.1719
ltibia 17.8783
lfoot -19.5287 -19.0564
ltoes -2.80286e-014
471
root 8.72088 17.4815 -37.0245 -173.48 -5.45114 -192.762
lowerback -5.22328 -0.854036 -4.01525
upperback -1.41349 -0.993829 -0.679111
thorax 1.52621 -0.538915 1.48816
lowerneck -13.3675 10.5889 1.43892
upperneck 29.0181 14.2274 -2.34286
head 12.013 5.65547 0.79587
rclavicle 1.73937e-015 -7.95139e-015
rhumerus -85.4861 28.7945 -116.733
rradius 88.6964
rwrist 28.9659
rhand -45.4998 -2.42545
rfingers 7.12502
rthumb -18.2646 -31.588
lclavicle 1.73937e-015 -7.95139e-015
lhumerus -88.6532 -46.8964 120.961
lradius 80.0632
lwrist -24.6978
lhand -37.8731 -4.25386
lfingers 7.12502
lthumb -10.9169 25.4423
rfemur 417.281 -590.24 64.1448
rtibia 27.079
rfoot -442.704 -48.9707
rtoes -1.10524e-013
lfemur 3.15631 0.403873 -40.7422
ltibia 17.9428
lfoot -19.8517 -19.0728
ltoes 5.34731e-014
472
root 8.69153 17.4344 -37.2404 -173.397 -5.79841 -192.543
lowerback -5.24226 -0.850465 -3.69837
upperback -1.48273 -1.00684 -0.570279
thorax 1.4633 -0.542129 1.42224
lowerneck -13.3823 10.3814 1.31766
upperneck 29.0168 13.9431 -2.29604
head 11.9944 5.52144 0.789518
rclavicle -1.68967e-015 -3.18055e-015
rhumerus -85.4475 28.4877 -116.371
rradius 89.0613
rwrist 29.3232
rhand -45.298 -2.4144
rfingers 7.12502
rthumb -18.0704 -31.595
lclavicle -1.68967e-015 -3.18055e-015
lhumerus -89.1858 -47.0769 121.761
lradius 79.768
lwrist -24.1086
lhand -38.0557 -4.30657
lfingers 7.12502
lthumb -11.093 25.3803
rfemur 414.205 -589.756 60.7796
rtibia 27.0957
rfoot -440.581 -50.4322
rtoes 1.05356e-013
lfemur 3.80133 0.00542678 -40.5049
ltibia 18.1833
lfoot -20.0416 -19.2196
ltoes -3.08116e-014
